PathFileType	4	(X/Y/Z)	C:\Users\86182\Documents\cortex\Trimmed_M1_L10.trc
DataRate	CameraRate	NumFrames	NumMarkers	Units	OrigDataRate	OrigDataStartFrame	OrigNumFrames
100.00	100.00	       140	2	mm	100.00	721	       901
Frame#	Time	gripper			box			
		X1	Y1	Z1	X2	Y2	Z2	

721	7.200	199.18553	195.61771	292.90479	200.86667	194.57474	156.32907	
722	7.210	199.17343	195.62007	292.90454	200.85893	194.56703	156.32938	
723	7.220	199.16338	195.61061	292.91986	200.85100	194.54648	156.35446	
724	7.230	199.17740	195.61415	292.91135	200.85686	194.57574	156.30840	
725	7.240	199.19348	195.61757	292.90201	200.85793	194.56929	156.32301	
726	7.250	199.15848	195.61452	292.93610	200.84325	194.55556	156.32187	
727	7.260	199.17302	195.62483	292.89841	200.86014	194.57153	156.32286	
728	7.270	199.17302	195.62483	292.89841	200.86107	194.55203	156.36278	
729	7.280	199.21002	195.61009	292.90216	200.84608	194.56862	156.30174	
730	7.290	199.17618	195.62950	292.89133	200.85455	194.57191	156.31148	
731	7.300	199.14462	195.60252	292.93671	200.85817	194.57297	156.31631	
732	7.310	199.16980	195.62009	292.90555	200.84966	194.57114	156.30367	
733	7.320	199.17302	195.62483	292.89841	200.85226	194.56812	156.31454	
734	7.330	199.16739	195.61655	292.91089	200.86208	194.55759	156.35387	
735	7.340	199.15509	195.61795	292.91339	200.83731	194.54729	156.32672	
736	7.350	199.16818	195.61771	292.90915	200.84863	194.55312	156.33694	
737	7.360	199.16661	195.61539	292.91269	200.84436	194.56267	156.31009	
738	7.370	199.16980	195.62009	292.90555	200.85127	194.56256	156.32350	
739	7.380	199.15770	195.60225	292.93250	200.86151	194.55928	156.34946	
740	7.390	199.16338	195.61061	292.91986	200.84047	194.55499	156.31769	
741	7.400	199.16608	195.60820	292.92236	200.85547	194.56342	156.32985	
742	7.410	199.16014	195.60585	292.92706	200.84543	194.55777	156.32172	
743	7.420	199.17979	195.61902	292.90515	200.84552	194.57910	156.28021	
744	7.430	199.16139	195.60851	292.92120	200.84685	194.55807	156.32382	
745	7.440	199.16344	195.61183	292.91708	200.85674	194.57266	156.31419	
746	7.450	199.16418	195.61182	292.91806	200.84621	194.57486	156.28981	
747	7.460	199.16801	195.60469	292.92670	200.84148	194.54814	156.33301	
748	7.470	199.17458	195.62715	292.89487	200.84686	194.57056	156.29945	
749	7.480	199.17848	195.62697	292.90897	200.83870	194.55951	156.30548	
750	7.490	199.17410	195.61897	292.92462	200.83731	194.54729	156.32672	
751	7.500	199.16980	195.62009	292.90555	200.84439	194.57927	156.27773	
752	7.510	199.16338	195.61061	292.91986	200.83653	194.54538	156.32896	
753	7.520	199.16266	195.61116	292.91534	200.84282	194.56812	156.29654	
754	7.530	199.16818	195.61771	292.90915	200.84047	194.55499	156.31769	
755	7.540	199.14821	195.59311	292.93506	200.83054	194.53520	156.33740	
756	7.550	199.16493	195.61618	292.91223	200.84254	194.56297	156.30605	
757	7.560	199.15770	195.60225	292.93250	200.84047	194.55499	156.31769	
758	7.570	199.16580	195.61420	292.91449	200.84541	194.57292	156.29210	
759	7.580	199.16461	195.60251	292.92816	200.82762	194.55280	156.32852	
760	7.590	199.16565	195.60732	292.94040	200.83101	194.53198	156.34464	
761	7.600	199.15788	195.60573	292.91977	200.81879	194.56021	156.32803	
762	7.610	199.15373	195.59802	292.93515	200.83810	194.54922	156.32445	
763	7.620	199.15337	195.59830	292.93286	200.84447	194.56471	156.30632	
764	7.630	199.16499	195.61301	292.91629	200.84171	194.56831	156.29402	
765	7.640	199.15967	195.60298	292.93646	200.84125	194.54453	156.33961	
766	7.650	199.16980	195.62009	292.90555	200.83540	194.57323	156.30342	
767	7.660	199.16110	195.57774	292.94229	200.84254	194.56297	156.30605	
768	7.670	199.15770	195.60225	292.93250	200.84288	194.56084	156.31087	
769	7.680	199.16899	195.61890	292.90735	200.84007	194.57159	156.30011	
770	7.690	199.15854	195.60347	292.93066	200.82813	194.56738	156.33179	
771	7.700	199.16176	195.60823	292.92346	200.84447	194.56471	156.30632	
772	7.710	199.16338	195.61061	292.91986	200.82594	194.57782	156.29182	
773	7.720	199.15933	195.60466	292.92886	200.84608	194.56862	156.30174	
774	7.730	199.15381	195.59975	292.92877	200.84590	194.56969	156.29933	
775	7.740	199.16580	195.61420	292.91449	200.84604	194.57593	156.28741	
776	7.750	199.15022	195.59525	292.93372	200.83412	194.53958	156.33571	
777	7.760	199.19348	195.61757	292.90201	200.84552	194.57910	156.28021	
778	7.770	199.13753	195.58301	292.93713	200.84032	194.55609	156.31526	
779	7.780	199.18787	195.60023	292.92236	200.84103	194.54095	156.34624	
780	7.790	199.16978	195.60936	292.91965	200.84608	194.56862	156.30174	
781	7.800	199.16014	195.60585	292.92706	200.84367	194.56277	156.30859	
782	7.810	199.17221	195.60217	292.92838	200.83653	194.54538	156.32896	
783	7.820	199.16249	195.61583	292.91351	200.84604	194.57593	156.28741	
784	7.830	199.15338	195.59375	292.93680	200.83591	194.53467	156.34872	
785	7.840	199.16266	195.61116	292.91534	200.84686	194.57056	156.29945	
786	7.850	199.16907	195.58723	292.93469	200.85123	194.55008	156.34782	
787	7.860	199.18341	195.59413	292.94382	200.83412	194.53958	156.33571	
788	7.870	199.16699	195.61678	292.90866	200.84573	194.57076	156.29692	
789	7.880	199.16461	195.61256	292.91666	200.84288	194.56084	156.31087	
790	7.890	199.16104	195.60876	292.91891	200.84119	194.57147	156.28685	
791	7.900	199.16235	195.62221	292.90546	200.84686	194.57056	156.29945	
792	7.910	199.16418	195.61182	292.91806	200.83572	194.54344	156.33122	
793	7.920	199.16661	195.61539	292.91269	200.85233	194.57285	156.30544	
794	7.930	199.16980	195.62009	292.90555	200.84555	194.57182	156.29451	
795	7.940	199.16338	195.61061	292.91986	200.84502	194.58228	156.27306	
796	7.950	199.16739	195.61655	292.91089	200.84535	194.58017	156.27782	
797	7.960	199.17206	195.61064	292.91769	200.84621	194.57486	156.28981	
798	7.970	199.17334	195.61890	292.90625	200.84570	194.57806	156.28259	
799	7.980	199.20013	195.60751	292.91464	200.84351	194.56384	156.30618	
800	7.990	199.18262	195.60576	292.92084	200.83810	194.54922	156.32445	
801	8.000	199.15532	195.59682	292.93185	200.84587	194.57700	156.28500	
802	8.010	199.19991	195.61638	292.90173	200.84515	194.56461	156.30782	
803	8.020	199.18890	195.60039	292.93460	200.84209	194.55890	156.31314	
804	8.030	199.20309	195.60376	292.91647	200.84686	194.57056	156.29945	
805	8.040	199.22685	195.57860	292.94641	200.84802	194.55475	156.33258	
806	8.050	199.24287	195.59796	292.91068	200.84541	194.57292	156.29210	
807	8.060	199.18451	195.60986	292.91595	200.85088	194.56784	156.31244	
808	8.070	199.17397	195.60707	292.92197	200.84625	194.55975	156.31944	
809	8.080	199.18361	195.62128	292.90051	200.84587	194.57700	156.28500	
810	8.090	199.24409	195.59572	292.92609	200.84686	194.57056	156.29945	
811	8.100	199.17560	195.60945	292.91840	200.85622	194.57588	156.30688	
812	8.110	199.19193	195.62589	292.89154	200.84637	194.57379	156.29222	
813	8.120	199.16960	195.60704	292.92310	200.83810	194.54922	156.32445	
814	8.130	199.16782	195.61798	292.90689	200.83981	194.58716	156.26923	
815	8.140	199.16136	195.61171	292.91711	200.84367	194.56277	156.30859	
816	8.150	199.18932	195.59753	292.93091	200.84608	194.56862	156.30174	
817	8.160	199.17139	195.62244	292.90198	200.84280	194.57539	156.28229	
818	8.170	199.16095	195.60704	292.92526	200.83572	194.54344	156.33122	
819	8.180	199.17139	195.62244	292.90198	200.84526	194.56665	156.30405	
820	8.190	199.17786	195.62125	292.90173	200.81241	194.57332	156.32077	
821	8.200	199.16243	195.60670	292.92706	200.84447	194.56471	156.30632	
822	8.210	199.17139	195.62244	292.90198	200.83510	194.57539	156.29860	
823	8.220	199.18753	195.62476	292.89432	200.84686	194.57056	156.29945	
824	8.230	199.17909	195.60243	292.92407	200.84209	194.55890	156.31314	
825	8.240	199.17664	195.62480	292.89740	200.80650	194.60515	156.27780	
826	8.250	199.18268	195.60693	292.91913	200.80746	194.58699	156.34541	
827	8.260	199.15854	195.60347	292.93066	200.83900	194.55734	156.31030	
828	8.270	199.16418	195.61182	292.91806	200.83888	194.55115	156.32220	
829	8.280	199.15111	195.60562	292.93051	200.83888	194.55115	156.32220	
830	8.290	199.16260	195.61433	292.91129	200.83000	194.55859	156.32175	
831	8.300	199.14302	195.58789	292.93726	200.83817	194.56914	156.31670	
832	8.310	199.14613	195.59572	292.93454	200.82657	194.56160	156.32472	
833	8.320	199.16499	195.61301	292.91629	200.81009	194.58188	156.31485	
834	8.330	199.14774	195.59091	292.94183	200.82520	194.56133	156.32263	
835	8.340	199.15781	195.60400	292.92612	200.83893	194.57176	156.29759	
836	8.350	199.16418	195.61182	292.91806	200.78322	194.58751	156.32831	
837	8.360	199.14653	195.59860	292.92755	200.80290	194.57874	156.32254	
838	8.370	199.17221	195.62364	292.90021	200.81702	194.59338	156.29034	
839	8.380	199.17183	195.60698	292.92221	200.81717	194.57063	156.31990	
840	8.390	199.19232	195.61047	292.91168	200.80850	194.59236	156.30658	
841	8.400	199.17618	195.62950	292.89133	200.82277	194.58426	156.30394	
842	8.410	199.18834	195.61526	292.90656	200.80653	194.56927	156.31747	
843	8.420	199.16739	195.61655	292.91089	200.84604	194.57593	156.28741	
844	8.430	199.16499	195.61301	292.91629	200.84175	194.56104	156.30832	
845	8.440	199.16571	195.61734	292.91046	200.83888	194.55115	156.32220	
846	8.450	199.16499	195.61301	292.91629	200.84186	194.57452	156.28218	
847	8.460	199.16055	195.60728	292.92300	200.83640	194.57413	156.30356	
848	8.470	199.17061	195.62128	292.90378	200.81958	194.57648	156.31308	
849	8.480	199.17642	195.61812	292.90482	200.79686	194.58998	156.30417	
850	8.490	199.16661	195.61539	292.91269	200.82439	194.55939	156.32489	
851	8.500	199.16418	195.61182	292.91806	200.80557	194.57538	156.31895	
852	8.510	199.16661	195.61539	292.91269	200.83810	194.54922	156.32445	
853	8.520	199.17537	195.62831	292.89313	200.80418	194.58478	156.31317	
854	8.530	199.17221	195.62364	292.90021	200.84367	194.56277	156.30859	
855	8.540	199.17386	195.61534	292.91064	200.84209	194.55890	156.31314	
856	8.550	199.19070	195.62943	292.88724	200.83154	194.58417	156.29012	
857	8.560	199.17332	195.62083	292.91479	200.84126	194.55693	156.31541	
858	8.570	199.17221	195.62364	292.90021	200.84325	194.55556	156.32187	
859	8.580	199.17618	195.62950	292.89133	200.84047	194.55499	156.31769	
860	8.590	199.14937	195.61606	292.91779	200.84621	194.57486	156.28981	
